<svg xmlns="http://www.w3.org/2000/svg" xmlns:xlink="http://www.w3.org/1999/xlink" width="373.303" height="59.891" viewBox="0 0 373.303 59.891">
  <defs>
    <clipPath id="clip-path">
      <rect id="Rectangle_22" data-name="Rectangle 22" width="373.303" height="59.891" fill="none"/>
    </clipPath>
  </defs>
  <g id="footer-logo" clip-path="url(#clip-path)">
    <path id="Path_109" data-name="Path 109" d="M52.861,42.193c.714,2.929,3.787,4.858,7.717,4.858a21.024,21.024,0,0,0,8.859-2.215l3.072,7.931a29.242,29.242,0,0,1-14.434,3.716c-11.36,0-18.792-7.145-18.792-18.077,0-10.79,7.575-18.506,18.149-18.506,10.432,0,17.22,7.359,17.22,18.649l-.071,3.644Zm5.5-8h.643c2.573,0,3.215-.357,3.215-1.642a4.422,4.422,0,0,0-4.716-4.359c-3.215,0-5.216,2.143-5.216,5.574v.285Z" transform="translate(6.728 3.408)" fill="#ededef"/>
    <path id="Path_110" data-name="Path 110" d="M89.081,24.115h6.645l-.143,11.933-7.145-.071-.143,5.859v.929c0,2.143.857,3.144,2.715,3.144a10.322,10.322,0,0,0,4-1l2.073,9.575a19.92,19.92,0,0,1-10.218,2.929c-4.5,0-8.432-1.786-10.147-4.644-.714-1.215-1.072-3.215-1.072-6.36V35.976L71.432,35.9V24.042H75.79l.143-6.215V16.9a40.412,40.412,0,0,0-.286-4.5H89.081Z" transform="translate(12.234 2.123)" fill="#ededef"/>
    <path id="Path_111" data-name="Path 111" d="M121.524,31.975a12.954,12.954,0,0,0-7.359-3.145,2.309,2.309,0,0,0-2.429,2.073c0,1,1.072,1.643,3.643,2.215a26.979,26.979,0,0,1,5.288,1.715,10.04,10.04,0,0,1,5.573,9.288c0,7.074-6.216,12.363-14.5,12.363a23.4,23.4,0,0,1-15.149-5.86l5.574-7.789c3.144,2.716,5.93,4,8.788,4,1.357,0,2.215-.642,2.215-1.571,0-1.072-1-1.715-4-2.5a24.575,24.575,0,0,1-4.215-1.357,10.139,10.139,0,0,1-5.5-9.361,12.226,12.226,0,0,1,4.431-9.361c2.286-1.858,5.573-2.786,9.645-2.786a21.55,21.55,0,0,1,13.29,4.431Z" transform="translate(16.542 3.408)" fill="#ededef"/>
    <path id="Path_112" data-name="Path 112" d="M21.41,0A110.007,110.007,0,0,0,0,2.538,77.7,77.7,0,0,1,1.1,12.593c.819-.2,3.294-.806,6.308-1.395l-.074.089a7.612,7.612,0,0,0,6.1,12.59c6.52-.227-.759-6.559,1.635-13.853,3.353-.326,6.324-.274,7.592.642,3.7,2.672,2.353,7.379,6.051,7.715l3.7.336s3.7,9.412-10.757,10.422C8.977,30.024,1.247,38.986,1.1,43.352S.761,55.089.423,58.391H19.209c-.253-2.625-.337-4.57-.337-6.177a30.951,30.951,0,0,0-.086-3.47v-.593l.338-6.346c1.523.083,2.624.083,3.809.083,8.293,0,14.3-1.777,18.193-5.5a21.956,21.956,0,0,0,7.024-15.825C48.151,7.7,38.165,0,21.41,0" transform="translate(0 0)" fill="#ededef"/>
    <path id="Path_113" data-name="Path 113" d="M203.6,54.847a49.615,49.615,0,0,0,.429-5.86L203.962,37.2c0-3.645-1.286-5.288-4.215-5.288a7.968,7.968,0,0,0-3.716.786l-.142,18.292v2.645l.071.856v.358H182.311a52.207,52.207,0,0,0,.43-5.574l.071-13.576a39.263,39.263,0,0,0-1.5-10.574,54.022,54.022,0,0,1,19.722-4.43c6.573,0,12.289,2.857,14.719,7.216,1.143,2,1.643,4.43,1.572,7.931V52.918a15.242,15.242,0,0,0,.143,1.929Z" transform="translate(31.052 3.544)" fill="#ededef"/>
    <path id="Path_114" data-name="Path 114" d="M232.431,6.661c-.214,1.929-.572,14.434-.643,20.149l.143,30.439H217.569l.071-.286c.071-.286.143-1.929.214-4.43l.286-9.432v-.429l.071-24.436v-.5l-.143-4.788-.143-3.572V9.09Z" transform="translate(37.262 1.141)" fill="#ededef"/>
    <path id="Path_115" data-name="Path 115" d="M275.411,54.847a49.614,49.614,0,0,0,.429-5.86L275.768,37.2c0-3.645-1.286-5.288-4.215-5.288a7.968,7.968,0,0,0-3.716.786l-.142,18.292v2.645l.07.856v.358H254.117a52.2,52.2,0,0,0,.43-5.574l.071-13.576a39.264,39.264,0,0,0-1.5-10.574,54.022,54.022,0,0,1,19.722-4.43c6.573,0,12.289,2.857,14.719,7.216,1.143,2,1.643,4.43,1.572,7.931V52.918a15.237,15.237,0,0,0,.143,1.929Z" transform="translate(43.35 3.544)" fill="#ededef"/>
    <path id="Path_116" data-name="Path 116" d="M302.1,42.193c.714,2.929,3.787,4.858,7.717,4.858a21.024,21.024,0,0,0,8.859-2.215l3.072,7.931a29.242,29.242,0,0,1-14.433,3.716c-11.36,0-18.792-7.145-18.792-18.077,0-10.79,7.575-18.506,18.149-18.506,10.432,0,17.22,7.359,17.22,18.649l-.071,3.644Zm5.5-8h.643c2.573,0,3.215-.357,3.215-1.642a4.422,4.422,0,0,0-4.716-4.359c-3.215,0-5.216,2.143-5.216,5.574v.285Z" transform="translate(49.414 3.408)" fill="#ededef"/>
    <path id="Path_117" data-name="Path 117" d="M234.733,7.454h16.291V19.6H234.733Zm.143,16.721h16.005V57.114H234.876Z" transform="translate(40.202 1.277)" fill="#ededef"/>
    <path id="Path_118" data-name="Path 118" d="M179.789,10.322a29.59,29.59,0,0,0-44.082-.931,31.156,31.156,0,0,0-8.207,20.9,29.215,29.215,0,0,0,29.19,29.528,29.883,29.883,0,0,0,29.7-30.121c0-7.953-2.115-14.046-6.6-19.375m-7.37,25.172-4.447,0a23.32,23.32,0,0,1-1.284,2.56l4.508,1.673a.586.586,0,0,1-.2,1.135.6.6,0,0,1-.2-.036l-4.739-1.759c-2.108,3.12-5.035,5.27-9.105,5.27-4.027,0-6.935-2.1-9.039-5.166l-5.346,1.9a.575.575,0,0,1-.2.034.585.585,0,0,1-.2-1.137l5.092-1.811a22.865,22.865,0,0,1-1.348-2.676l-4.443,0a.586.586,0,1,1,0-1.171h0l3.969,0c-.4-1.067-.75-2.167-1.049-3.28l-2.617-.972a.585.585,0,1,1,.408-1.1l1.863.691a56.755,56.755,0,0,1-1.415-13.9.3.3,0,0,1,.486-.192,33.2,33.2,0,0,1,6.156,5.059c6.382-3.617,10.023-2.926,15.264-.159,1.649-2.234,6.237-4.9,6.237-4.9a.3.3,0,0,1,.486.192,56.689,56.689,0,0,1-1.534,14.421l1.6-.57a.585.585,0,1,1,.394,1.1l-2.36.84c-.268.944-.574,1.875-.917,2.783l3.976,0a.586.586,0,0,1,0,1.171" transform="translate(21.836 0)" fill="#ededef"/>
  </g>
</svg>
