<svg id="logo" xmlns="http://www.w3.org/2000/svg" xmlns:xlink="http://www.w3.org/1999/xlink" width="67.89" height="67.89" viewBox="0 0 67.89 67.89">
  <defs>
    <clipPath id="clip-path">
      <rect id="Rectangle_19" data-name="Rectangle 19" width="67.89" height="67.89" fill="none"/>
    </clipPath>
  </defs>
  <g id="Group_26" data-name="Group 26" clip-path="url(#clip-path)">
    <path id="Path_93" data-name="Path 93" d="M100.091,37.585c-2.378-.293-4.832.293-8.084,2.136a29.636,29.636,0,0,0-5.494-4.514.265.265,0,0,0-.433.172,50.625,50.625,0,0,0,1.262,12.406l-1.663-.617a.522.522,0,1,0-.363.98l2.335.866c.267.993.577,1.975.937,2.927l-3.543,0h0a.523.523,0,0,0,0,1.045l3.965,0a20.4,20.4,0,0,0,1.2,2.389l-4.544,1.616a.522.522,0,0,0,.175,1.015.5.5,0,0,0,.175-.031l4.77-1.7c1.877,2.735,4.472,4.61,8.065,4.61.119,0,.234-.008.351-.011a33.981,33.981,0,0,0,.887-23.292" transform="translate(-33.841 -14.072)" fill="#ededef"/>
    <path id="Path_94" data-name="Path 94" d="M20.06,34.815l-3.321-.3c-3.322-.3-2.114-4.529-5.435-6.928-1.074-.776-3.51-.857-6.308-.619q-.44.718-.846,1.457c-.924,5.934,4.3,10.838-1.133,11.027A7.132,7.132,0,0,1,.47,39.085,34.11,34.11,0,0,0,0,44.694c0,.855.043,1.7.1,2.539A24.259,24.259,0,0,1,10.4,44.176c12.984-.906,9.663-9.36,9.663-9.36" transform="translate(0 -10.749)" fill="#ededef"/>
    <path id="Path_95" data-name="Path 95" d="M43.961,34.284a27.8,27.8,0,0,1,7.324-18.649A24.654,24.654,0,0,1,61.867,8.708,33.919,33.919,0,0,0,18.11,7.332c13.411.79,21.311,7.549,21.311,18.391a19.716,19.716,0,0,1-6.308,14.213c-3.5,3.344-8.893,4.94-16.342,4.94-1.063,0-2.052,0-3.42-.076l-.3,5.7v.531a28.276,28.276,0,0,1,.076,3.117c0,.49.01,1.02.031,1.592a33.926,33.926,0,0,0,48.582,3.551A26.176,26.176,0,0,1,43.961,34.284" transform="translate(-5.224 0)" fill="#ededef"/>
  </g>
</svg>
